<svg id="Layer_1" data-name="Layer 1" xmlns="http://www.w3.org/2000/svg" viewBox="0 0 355.35 421.27"><defs><style>.cls-1{fill:#fff;}</style></defs><g id="Layer_2" data-name="Layer 2"><path class="cls-1" d="M65.36,290.32c-2.71,8.14-5.11,15.39-7.54,22.62-3,8.85-3,8.85-12.16,8.83-4.17,0-8.33-.09-12.5,0a5.2,5.2,0,0,1-5.58-4c-2.74-8.2-5.63-16.35-8.31-24.57a16.27,16.27,0,0,1-.38-4.95c0-11.16.21-22.34-.13-33.49-.15-4.8,1.61-7.5,5.94-9.07,2.47-.89,4.81-2.15,7-3.16-3-9.35-5.81-18.34-8.65-27.33-.15-.47-.18-1-.3-1.47-2.62-10.81-2.24-11.44,8.68-14.42,1.28-.35,2.54-.74,4.85-1.41l-9-3.12v-31.1l9.09-3c-4.05-1.19-7.2-2-10.3-3-4.23-1.36-5.3-3.15-4.45-7.43,6-30.37,19.74-56.74,41.59-78.69,4.37-4.39,7.57-8.64,6.49-15.11C68.55,49.74,71.54,46,77.08,41.91a146.63,146.63,0,0,1,41-21.34Q193.88-4.54,262.44,36.81a91,91,0,0,1,11.4,8.07c1.45,1.21,3,3.65,2.76,5.34-1.17,10.17,2.29,17.69,9.88,24.83a111.38,111.38,0,0,1,25.82,37.69c5,11.71,8.54,24.08,12.26,36.29,1.74,5.7.28,7.42-5.43,9-2.67.74-5.36,1.45-8.19,2.22.35.63.43,1,.6,1,8,2.27,7.94,2.26,7.87,10.57-.05,5.83.1,11.66.08,17.5,0,1.79-.24,3.58-.38,5.49L311,197.45c0,.25,0,.5,0,.75,2.75.75,5.51,1.49,8.26,2.27,5.32,1.51,6.65,3.43,5.57,8.68a155.81,155.81,0,0,1-22.4,54.6c-3.19,4.86-6.34,9.95-10.45,14-11.83,11.57-18.31,26.45-26.07,40.53q-24,43.51-47.52,87.25c-1.63,3-3.72,4.42-7.14,4.29-4.33-.16-8.66,0-13-.07-5.71-.11-7.07-1.45-7.1-7.15-.05-12.33,0-24.66,0-37v-5.83H155.23v5.11c0,12.5,0,25,0,37.49,0,6.25-1.1,7.33-7.25,7.4-4.17,0-8.34-.16-12.49.06-3.67.19-5.81-1.4-7.5-4.54-9.86-18.32-19.84-36.57-29.79-54.83C87.45,330.73,76.68,311,65.36,290.32Z"/></g><g id="Layer_1-2" data-name="Layer 1"><path d="M65.36,290.32c-2.71,8.14-5.11,15.39-7.54,22.62-3,8.85-3,8.85-12.16,8.83-4.17,0-8.33-.09-12.5,0a5.2,5.2,0,0,1-5.58-4c-2.74-8.2-5.63-16.35-8.31-24.57a16.27,16.27,0,0,1-.38-4.95c0-11.16.21-22.34-.13-33.49-.15-4.8,1.61-7.5,5.94-9.07,2.47-.89,4.81-2.15,7-3.16-3-9.35-5.81-18.34-8.65-27.33-.15-.47-.18-1-.3-1.47-2.62-10.81-2.24-11.44,8.68-14.42,1.28-.35,2.54-.74,4.85-1.41l-9-3.12v-31.1l9.09-3c-4.05-1.19-7.2-2-10.3-3-4.23-1.36-5.3-3.15-4.45-7.43,6-30.37,19.74-56.74,41.59-78.69,4.37-4.39,7.57-8.64,6.49-15.11C68.55,49.74,71.54,46,77.08,41.91a146.63,146.63,0,0,1,41-21.34Q193.88-4.54,262.44,36.81a91,91,0,0,1,11.4,8.07c1.45,1.21,3,3.65,2.76,5.34-1.17,10.17,2.29,17.69,9.88,24.83a111.38,111.38,0,0,1,25.82,37.69c5,11.71,8.54,24.08,12.26,36.29,1.74,5.7.28,7.42-5.43,9-2.67.74-5.36,1.45-8.19,2.22.35.63.43,1,.6,1,8,2.27,7.94,2.26,7.87,10.57-.05,5.83.1,11.66.08,17.5,0,1.79-.24,3.58-.38,5.49L311,197.45c0,.25,0,.5,0,.75,2.75.75,5.51,1.49,8.26,2.27,5.32,1.51,6.65,3.43,5.57,8.68a155.81,155.81,0,0,1-22.4,54.6c-3.19,4.86-6.34,9.95-10.45,14-11.83,11.57-18.31,26.45-26.07,40.53q-24,43.51-47.52,87.25c-1.63,3-3.72,4.42-7.14,4.29-4.33-.16-8.66,0-13-.07-5.71-.11-7.07-1.45-7.1-7.15-.05-12.33,0-24.66,0-37v-5.83H155.23v5.11c0,12.5,0,25,0,37.49,0,6.25-1.1,7.33-7.25,7.4-4.17,0-8.34-.16-12.49.06-3.67.19-5.81-1.4-7.5-4.54-9.86-18.32-19.84-36.57-29.79-54.83C87.45,330.73,76.68,311,65.36,290.32ZM266.75,52c-.52-.46-.87-.83-1.27-1.12Q215.74,15.83,155.23,22.35c-25.61,2.74-48.92,11.6-70.29,25.8a13.23,13.23,0,0,0-1.87,20.27q34.08,34.1,68.19,68.18c1.14,1.14,2.34,2.24,2.7,2.59,7.22-1.29,13.39-3.28,19.55-3.24s12.29,2.1,19.92,3.55a16.28,16.28,0,0,1,2.22-3.17c21.16-21.23,42.12-42.68,63.72-63.45,6-5.77,8.82-11.57,7.58-19.56ZM201.09,320.36c56.74-9,104.33-59.06,112.67-111.08-9.3-1.95-18.08-5.89-28-5.76-23.81.31-47.62.1-71.43.09-7,0-13.23,6.33-13.23,13.44q0,49,0,97.91C201.09,316.6,201.09,318.25,201.09,320.36Zm-169-171.24c7.48,1.89,14.49,5.06,21.56,5.21,27.94.6,55.91.24,83.86.24l7.92-8.68L74.1,74.45C52.81,94.66,38.88,119.36,32.07,149.12ZM272.69,74.61,201.2,146.08l7.76,8.53h6.84c24.63,0,49.27.4,73.89-.25,8.21-.22,16.34-3.12,24.81-4.86C307.77,119.41,293.7,94.8,272.69,74.61ZM155.52,218.86V349.12h35.39V218.82A44.82,44.82,0,0,1,155.52,218.86ZM144.93,320.45v-101l-79,54.82C85.54,298.79,117.4,316,144.93,320.45ZM173,212.58c18.82.06,33.82-14.61,33.92-33.19.1-18.29-15.32-33.78-33.64-33.79a33.38,33.38,0,0,0-33.39,33.24C139.77,197.84,154.17,212.52,173,212.58ZM55,286.1a85.79,85.79,0,0,0-.06-9.41c-.58-4.94,1.55-7.82,5.59-10.57,24.18-16.49,48.17-33.26,72.22-49.94,3.11-2.16,6.17-4.39,9.58-6.82l-4-4.27-109,49.52v31.5Zm146.41,44.7v68.7h8.86L260.12,308l-.93-.78A157.51,157.51,0,0,1,201.39,330.8Zm-56.47-.06a153.27,153.27,0,0,1-58.21-24.08l-.73.74,50.24,92.13h8.7Zm-12.7-165.9H57.61v28.55h74.72C129,183.62,129.47,174.32,132.22,164.84Zm82.18,28.49h74.28V164.71H214.23A46.86,46.86,0,0,1,214.4,193.33ZM41,238.72l74-33.67-.21-1.15a19.3,19.3,0,0,0-2.24-.28c-19.14,0-38.3-.54-57.4.25-7.73.32-15.34,3.52-23.76,5.59C34.71,219.49,37.74,228.72,41,238.72Zm6.38-43.56V163.3l-15.22,3.79v24.29Zm267.17-3.83V167.16l-15.36-3.83V195.1ZM47.64,311.91l5.12-15.78h-22c1.92,5.61,3.66,10.71,5.39,15.78Z"/></g></svg>
